<svg width="75" height="75" viewBox="0 0 75 75" fill="none" xmlns="http://www.w3.org/2000/svg">
<path d="M27.0432 46.5144C22.0647 51.493 13.9929 51.493 9.01441 46.5144L0 37.5L9.01441 28.4856C13.9929 23.507 22.0647 23.507 27.0432 28.4856L36.0577 37.5L27.0432 46.5144Z" fill="#84CC16"/>
<path d="M28.3919 27.0433C23.4134 22.0648 23.4134 13.993 28.3919 9.01443L37.4063 0L46.4207 9.01443C51.3993 13.993 51.3993 22.0648 46.4207 27.0433L37.4063 36.0577L28.3919 27.0433Z" fill="#EAB308"/>
<path d="M65.9856 46.5144C61.0071 51.493 52.9353 51.493 47.9568 46.5144L38.9423 37.5L47.9568 28.4856C52.9353 23.507 61.0071 23.507 65.9856 28.4856L75 37.5L65.9856 46.5144Z" fill="#14B8A6"/>
<path d="M28.4856 65.9856C23.5071 61.007 23.5071 52.9352 28.4856 47.9567L37.5001 38.9423L46.5145 47.9567C51.493 52.9352 51.493 61.007 46.5145 65.9856L37.5001 75L28.4856 65.9856Z" fill="#10B981"/>
</svg>
